<?xml version="1.0" encoding="utf-8"?>
<!-- Designed by Vexels.com - 2020 All Rights Reserved - https://vexels.com/terms-and-conditions/  -->
<svg version="1.1" id="Layer_1" xmlns="http://www.w3.org/2000/svg" xmlns:xlink="http://www.w3.org/1999/xlink" x="0px" y="0px"
	 viewBox="0 0 1200 1200" enable-background="new 0 0 1200 1200" xml:space="preserve">
<g>
	<path fill="#FFF" d="M678.233,403.569c1.569-0.324,3.843-1.495,6.04-2.629c3.777-1.95,7.35-3.82,10.299-3.311
		c3.064,0.497,4.29,2.081,4.779,3.322c0.794,2.004,0.2,4.513-1.623,6.88c-3.388,4.405-15.995,6.884-18.489,7.335
		c-7.493,1.364-14.041,0.883-20.621-1.499c-1.958-0.709-3.793-1.546-5.585-2.367c-4.459-2.039-8.333-3.796-13.263-3.168
		c-2.432,0.308-4.756,1.041-7.215,1.815c-3.014,0.948-6.128,1.927-9.539,2.116c-14.831,0.875-24.637-10.676-30.106-20.49
		c-0.948-1.704-1.627-3.627-2.278-5.485c-1.025-2.91-1.993-5.658-3.839-7.373c-3.955-3.685-10.461-3.353-16.207-3.072
		c-1.522,0.077-2.991,0.15-4.355,0.15c0,0-0.004,0-0.008,0c-6.811,0-10.399-2.918-14.203-6.009
		c-1.815-1.476-3.692-3.003-6.067-4.313c-2.444-1.353-5.041-2.374-7.797-3.457c-2.455-0.967-4.976-1.958-7.396-3.211
		c-3.558,9.362-6.687,19.85-9.778,32.777c-3.585,14.974-10.11,24.899-20.902,37.977c-5.462,6.618-9.069,10.993-10.06,19.595
		c-0.94,8.133-2.054,13.903-8.73,19.746c-8.017,7.019-17.055,16.55-27.632,29.142c-2.814,3.619-5.766,7.948-9.246,13.563
		c-3.585,5.789-4.664,11.339-5.808,17.213c-0.651,3.365-1.33,6.841-2.494,10.565c-2.474,7.886-5.419,15.745-8.271,23.342
		c-4.236,11.293-8.614,22.968-11.467,34.858c-7.551,31.467-14.242,62.278-13.209,93.197c0.913,29.112,7.524,57.225,20.2,85.951
		c4.444,10.067,11.409,19.669,18.142,28.954c2.124,2.929,4.22,5.824,6.217,8.691c0.79,1.141,1.615,2.432,2.486,3.793
		c3.33,5.211,7.477,11.702,12.527,13.347c1.596,0.52,3.357,0.667,5.226,0.825c2.093,0.177,4.363,0.366,6.548,1.156
		c-0.073-0.532-0.15-1.06-0.227-1.588l-0.355-2.509c-3.423-24.417-8.599-61.326-9.327-91.81
		c-0.798-33.421,5.334-67.385,11.682-99.306c0.204-1.025,0.47-2.945,0.809-5.4c3.199-22.945,6.533-37.171,13.255-37.171
		c0.012,0,0.015,0,0.027,0c1.372,0.008,2.532,0.59,3.361,1.68c3.041,4.012,0.933,14.743-3.457,30.761
		c-0.536,1.946-0.944,3.43-1.091,4.167c-5.396,27.354-10.684,56.84-12.808,87.104c-2.135,30.395,2.363,61.989,6.714,92.546
		c0.863,6.078,1.727,12.126,2.528,18.115c0,0.004,0,0.004,0,0.004c0,0.008,0,0.012,0,0.015c0.008,0.046,0.012,0.096,0.015,0.143
		l0.177,1.391c0.266,2.058,0.701,5.431,0.856,6.818l0.108,0.971c0.297,2.702,0.532,4.833,1.137,7.489
		c0.64,2.806,1.357,5.473,2.066,8.109c1.388,5.172,2.698,10.056,3.419,15.668c2.143,16.701,3.18,32.103,3.164,47.096
		c-0.008,7.747,0.096,15.356,0.2,22.983c0.104,7.474,0.204,14.962,0.204,22.613c-0.004,26.803,1.588,54.211,3.126,80.721
		l0.289,4.968c0.636,11.004,0.94,22.213,1.237,33.051c0.389,14.311,0.79,29.112,1.958,43.565c0.081,0.998,0.15,2.101,0.224,3.268
		c0.358,5.677,0.798,12.746,3.13,16.82c1.295,2.266,3.122,3.635,5.438,4.066c3.619,0.682,8.622-0.998,12.669-4.286
		c9.817-7.952,15.302-21.045,20.143-32.6l0.763-1.819c2-4.752,4.109-9.832,5.939-15.097c0.594-1.711,1.087-3.45,1.58-5.188
		c0.435-1.546,0.875-3.091,1.38-4.618c1.542-4.671,2.659-8.048,5.415-8.495c2.336-0.358,4.436,1.673,6.849,4.891
		c4.005,5.346,9.771,8.322,16.234,8.372c0.054,0,0.112,0,0.17,0c7.007,0,13.945-3.561,18.589-9.555
		c9.821-12.665,17.209-28.788,21.912-39.811c10.071-23.592,22.236-54.67,26.949-85.851c0.509-3.369,0.91-6.263,1.31-9.158
		c0.397-2.875,0.794-5.751,1.299-9.085c0.655-4.34,1.484-10.148,1.927-13.417c0.004-0.019,0.008-0.039,0.012-0.062
		c0.015-0.123,0.042-0.247,0.085-0.362c0.173-1.137,0.474-3.207,0.559-4.001c-0.316-0.817-0.894-1.141-2.286-1.835
		c-0.898-0.447-2.016-1.002-3.153-1.9c-2.031-1.603-3.685-3.342-5.142-4.876c-4.066-4.282-6.518-6.857-13.583-4.313
		c-4.016,1.457-7.427,3.662-11.043,5.997c-4.486,2.902-9.127,5.901-15.005,7.335c-3.619,0.886-7.751,1.079-12.126,1.283
		c-6.39,0.301-12.997,0.609-17.287,3.245c-8.036,4.941-9.979,17.352-10.773,27.612c-0.065,0.875,0.17,2.898,0.416,5.041
		c0.879,7.57,1.97,16.99-3.403,18.628c-7.948,2.405-13.27-12.303-16.4-21.129c-0.463-1.299-0.833-2.351-1.11-3.003
		c-0.324-1.237-0.821-2.486-1.372-3.785c-1.962,11.47-0.547,22.875,1.372,35.298c1.087,7.026,0.856,12.708-0.767,18.998
		c-0.247,0.952-0.409,2.571-0.578,4.282c-0.501,5.041-1.068,10.754-4.398,12.854c-1.303,0.825-2.771,0.956-4.255,0.382
		c-8.803-3.446-18.158-36.882-19.946-43.55c-4.379-16.327-5.839-30.569-4.34-42.336c1.033-8.113,3.457-15.067,6.78-23.01
		c2.182-5.219,1.461-6.853-2.844-12.176c-0.478-0.59-1.426-1.43-2.428-2.32c-3.403-3.018-8.549-7.585-5.554-12.11
		c1.345-2.027,3.006-2.544,4.167-2.625c3.669-0.189,7.223,3.388,10.499,7.138l0.628,0.713c4.594,5.138,9.22,11.351,8.68,18.474
		c-0.289,3.827-2.047,7.358-3.75,10.773c-1.172,2.355-2.278,4.579-2.887,6.814c-6.379,23.411,1.611,50.044,9.505,69.848
		c0.613-5.789-0.243-11.185-1.257-17.576l-0.231-1.465c-1.677-10.661-1.445-21.619,0.698-32.565
		c0.709-3.623,3.5-15.568,9.659-17.186c2.54-0.667,5.08,0.432,7.512,3.28c1.626,1.908,2.22,5.203,2.79,8.387
		c0.266,1.492,0.52,2.902,0.833,3.8c0.351,1.018,0.744,2.02,1.145,3.018c2.764-19.329,10.669-30.777,23.11-33.294
		c4.128-0.833,8.302-1.098,12.338-1.353c6.105-0.382,11.871-0.748,17.514-2.922c3.515-1.353,6.614-3.461,9.89-5.689
		c4.652-3.161,9.458-6.429,15.587-7.439c5.223-0.863,10.16-0.073,14.28,2.278c2.432,1.384,4.128,3.6,5.766,5.743
		c1.469,1.927,2.86,3.746,4.54,4.583c2.818,1.388,5.797-1.222,9.698-5.065c0.582-0.578,1.152-1.137,1.707-1.657
		c2.521-2.367,4.903-4.995,7.423-7.778c5.508-6.078,11.201-12.361,18.609-15.926c0.567-0.278,1.237-0.262,1.796,0.042
		c0.559,0.304,0.937,0.856,1.018,1.484l0.412,3.153c1.087,8.183,2.212,16.639,0.362,25.169c-0.782,3.631-2.116,7.038-3.407,10.333
		c-0.821,2.097-1.646,4.197-2.32,6.352c-0.085,0.27-0.224,0.505-0.397,0.705c-5.901,13.633-8.564,25.492-8.368,37.225l-0.008,1.029
		c-0.019,1.511-0.073,5.049,0.917,6.04c0.093,0.092,0.224,0.146,0.49,0.166c0.335-0.004,1.233-0.019,1.303-4.086
		c1.831-11.821,8.738-25.566,16.82-33.698c4.236-4.267,8.429-5.851,12.496-4.683c7.944,2.263,11.22,13.972,12.037,17.506
		c3.172,13.733,2.633,28.056,2.108,41.904c-0.25,6.633-0.509,13.494-0.339,20.1c0.015,0.574-0.023,1.226-0.062,1.916
		c-0.089,1.519-0.212,3.592,0.551,4.074c0.32,0.204,0.79,0.428,1.041,0.308c1.353-0.524,2.54-4.883,3.045-6.741
		c0.262-0.96,0.493-1.796,0.709-2.367c1.65-4.371,3.889-8.352,6.059-12.203c2.748-4.883,5.342-9.493,6.838-14.831
		c7.015-25.038,8.325-44.841,3.897-58.863c-1.584-5.018-4.714-8.668-8.025-12.538c-2.945-3.434-5.986-6.988-7.859-11.563
		c-4.945-12.103-2.698-26.24-0.208-38.543c2-9.879,4.417-19.881,6.753-29.559c2.752-11.393,5.596-23.172,7.766-34.762
		c1.819-9.724,1.426-20.563,1.048-31.047c-0.158-4.355-0.312-8.653-0.308-12.789c0.012-18.412-0.721-33.61-2.313-47.824
		c-1.561-13.949-3.531-30.438-6.302-46.984c-1.7-10.137-4.39-20.177-6.996-29.886c-1.723-6.417-3.504-13.058-4.991-19.692
		c-0.617-2.764-1.172-6.672,1.075-8.684c1.38-1.233,3.372-1.422,5.909-0.547c4.309,1.476,6.302,9.539,8.129,18.385
		c0.247,1.203,0.451,2.197,0.621,2.856c4.976,19.233,8.036,38.158,10.376,54.134c5.173,35.363,7.157,71.602,5.909,107.798
		c16.358-19.414,25.67-46.576,28.418-82.802l1.149-14.777c1.985-25.408,4.043-51.683,4.398-77.395
		c0.239-17.071-2.683-33.386-9.189-51.351c-3.157-8.711-8.129-15.687-13.386-23.072c-3.265-4.583-6.641-9.32-9.559-14.523
		c-2.972-5.3-5.304-10.915-7.558-16.342c-1.295-3.122-2.594-6.248-4.016-9.335l-1.418-3.064
		c-5.731-12.38-11.147-24.074-14.353-37.738c-0.767-3.253-1.607-6.522-2.451-9.802c-2.937-11.393-5.97-23.168-5.897-35.101
		c0.065-10.966,4.429-19.221,9.046-27.959c0.732-1.388,1.476-2.798,2.216-4.244c0.782-1.526,1.519-3.095,2.259-4.671
		c1.673-3.569,3.392-7.238,5.697-10.553c-7.944-5.192-14.673-13.856-16.836-19.777c-0.991-2.359-2.71-6.456-0.948-9.339
		c0.609-0.998,1.896-2.232,4.56-2.44c4.047-0.432,6.857,5.5,9.216,10.642c0.813,1.769,1.654,3.6,2.232,4.363
		c3.13,4.093,8.04,8.31,9.983,7.917c2.031-0.443,5.943-6.34,7.084-9.166c0.32-0.79,1.16-1.295,1.97-1.23
		c0.856,0.062,1.573,0.667,1.777,1.495c0.262,1.068,0.524,2.255,0.798,3.5c0.852,3.87,2.629,11.929,4.756,12.315
		c0.154,0.042,1.962,0.135,5.666-5.581c0.127-0.197,0.281-0.362,0.455-0.493c11.875-16.088,15.633-42.405,9.108-64.541
		c-1.63-5.519-4.321-10.68-6.741-15.005l-0.378-0.736c-1.43-2.829-2.162-4.062-2.536-4.575c-0.532,0.116-2.636,0.582-8.649,2.96
		l-0.428,0.17c-6.367,2.498-11.763,7.134-16.978,11.617c-1.249,1.075-2.498,2.147-3.754,3.191c-1.322,1.095-2.902,2.139-4.579,3.245
		c-6.533,4.313-10.657,7.527-8.526,12.681c2.108,5.099,8.603,8.229,13.822,10.746l2.182,1.064c0.035,0.019,0.069,0.039,0.108,0.058
		l0.039,0.023c0.015,0.008,0.031,0.019,0.046,0.031c2.721,1.341,6.911,3.527,7.138,6.872c0.119,1.777-0.848,3.38-2.875,4.76
		c-3.199,2.158-7.832-0.274-10.896-1.881c-0.474-0.247-0.894-0.47-1.241-0.632c-11.382-5.381-18.663-13.625-19.48-22.051
		c-0.463-4.772,0.956-11.91,10.337-18.817c3.496-2.579,6.907-5.396,10.206-8.125c1.731-1.434,3.465-2.864,5.219-4.274
		c5.381-4.321,10.665-6.676,16.258-9.169c1.449-0.644,2.933-1.307,4.456-2.02c1.099-0.513,1.931-0.825,2.575-1.01
		c0.073-0.22,0.162-0.459,0.27-0.725c0.744-1.831,0.092-6.151-1.931-12.843c-1.592-5.261-4.193-10.7-6.529-15.325
		c-14.219-28.229-33.81-51.96-56.655-68.63c-0.17-0.123-0.312-0.27-0.428-0.428c-15.76-12.168-33.868-22.702-51.386-32.9
		c-20.89-12.153-42.49-24.722-59.877-39.983c-5.415-4.257-10.811-8.982-15.953-13.974c-1.152-1.122-2.54-2.856-4.143-4.868
		c-2.914-3.646-7.786-9.748-10.31-9.796c-0.89-0.06-1.152,0.148-1.152,0.15c-0.135,0.871,1.291,4.041,9.516,13.253
		c0.867,0.971,1.549,1.74,1.912,2.199c2.59,3.268,5.261,6.468,7.932,9.667c1.357,1.623,2.71,3.245,4.055,4.878
		c12.095,14.697,26.807,31.733,44.217,46.657c8.125,6.965,17.475,12.584,26.514,18.023c7.924,4.764,16.119,9.694,23.569,15.552
		l0.69,0.505c26.005,19.121,26.525,25.311,26.695,27.35c0.127,1.515-0.331,2.86-1.322,3.885c-3.581,3.7-11.382-2.436-27.516-17.595
		c-2.382-2.239-4.44-4.17-5.284-4.814c-6.348-4.81-13.32-8.988-20.062-13.028c-4.864-2.918-9.898-5.932-14.7-9.185
		c-1.149-0.779-2.278-1.584-3.407-2.39c-4.197-2.999-8.163-5.832-12.843-6.992c-2.093-0.52-4.209-0.829-6.448-1.156
		c-2.328-0.343-4.729-0.694-7.111-1.303c-5.936-1.515-11.756-3.646-17.379-5.708c-4.826-1.765-9.817-3.596-14.723-4.964
		c-2.027-0.563-2.86-0.536-3.145-0.489c0.1,0.143,0.166,0.833,0.767,2.251c1.191,2.825,6.217,5.778,9.886,7.932
		c1.195,0.705,2.289,1.349,3.157,1.923c9.647,6.383,20.12,11.991,30.245,17.418c8.094,4.34,16.466,8.826,24.417,13.702
		c0.705,0.432,1.064,1.257,0.902,2.07c-0.162,0.809-0.813,1.434-1.63,1.561c-0.563,0.089-1.264,0.181-2.058,0.293
		c-7.782,1.06-12.06,2.166-12.719,3.288c0.081,0,0.563,0.948,3.608,2.602c1.804,0.979,3.519,1.815,5.169,2.617
		c4.868,2.374,9.47,4.617,13.964,9.462c0.405,0.432,0.59,1.025,0.509,1.611s-0.42,1.106-0.925,1.415
		c-3.434,2.093-6.044,4.872-8.811,7.813c-2.008,2.139-4.089,4.352-6.541,6.329c-2.17,1.26-4.413,2.69-6.818,4.224
		c-4.136,2.64-8.826,5.631-13.151,7.709c-2.155,1.041-4.34,2.031-6.525,3.022c-5.762,2.613-11.725,5.319-16.99,8.896
		c-10.831,7.35-21.137,17.853-31.513,32.103c-8.838,12.133-16.049,26.464-22.702,45.107c-1.576,4.429-2.806,8.807-4.105,13.444
		l-1.21,4.278c-0.482,1.677-1.125,3.369-1.761,5.041c-2.351,6.159-3.585,10.079,0.432,12.935l2.578,1.846
		c4.194,3.018,8.53,6.14,13.105,8.445c4.671,2.347,7.543,4.444,11.181,7.1l1.885,1.372c2.648,1.919,2.972,1.892,5.523,1.623
		c0.836-0.085,1.846-0.185,3.137-0.243c6.117-0.305,21.137,0.116,27.928,9.748c2.12,3.003,3.766,6.575,5.357,10.029
		c3.689,8.009,7.173,15.575,16.184,17.052c4.317,0.705,8.549-0.532,13.031-1.839c4.814-1.407,9.802-2.86,15.221-1.97
		c4.725,0.767,8.553,2.351,12.257,3.877C665.437,403.041,670.536,405.142,678.233,403.569z M582.257,899.396
		c-1.592,2.178-3.215,2.748-4.479,2.748c-0.277,0-0.54-0.027-0.779-0.069c-4.806-0.894-7.867-9.925-10.461-19.553l-0.324-1.191
		c-1.754-6.132-1.889-12.43-2.023-18.52c-0.108-4.914-0.22-9.998-1.206-14.816c-2.918-14.253-14.296-34.851-25.365-45.92
		c-0.004-0.004-0.008-0.008-0.012-0.012c-0.008-0.008-0.015-0.015-0.023-0.023c-2.289-2.274-6.082-6.044-6.086-9.794
		c-0.004-1.442,0.547-2.752,1.592-3.797c1.083-1.06,2.521-1.476,4.062-1.195c11.039,2.077,32.931,45.828,33.128,46.267
		c4.24,9.474,4.722,18.666,5.23,28.402c0.15,2.902,0.304,5.839,0.567,8.819c0.181,2.078,1.646,6.063,3.06,9.917
		C582.53,889.907,584.581,896.209,582.257,899.396z M721.386,754.447c1.792,2.054,1.314,5.188,0.998,7.265l-0.008,0.046
		c-0.247,1.63-1.048,3.215-1.754,4.617c-0.27,0.536-0.536,1.06-0.752,1.557l-0.25,0.586c-0.505,1.176-0.894,2.085-1.241,2.76
		l-0.031,0.085l-0.008-0.004c-0.023,0.042-0.042,0.081-0.065,0.119c-3.504,8.156-8.429,15.718-13.197,23.033
		c-9.906,15.201-19.26,29.563-16.377,48.41c0.185,1.21,1.168,3.665,2.209,6.263c3.361,8.41,5.535,14.623,2.871,17.996
		c-1.445,1.823-2.906,2.309-4.051,2.309c-0.582,0-1.083-0.123-1.461-0.266c-8.025-2.964-12.168-34.677-12.064-37.418
		c0.671-16.431,9.909-30.041,18.848-43.203c3.257-4.799,6.333-9.331,9.015-13.991c0.54-0.937,1.364-3.13,2.236-5.45
		c3.584-9.524,6.464-16.277,10.869-16.354C719.015,752.817,720.407,753.329,721.386,754.447z M665.456,252.75
		c-1.449,0.821-2.91,1.746-3.396,2.074c-4.583,3.326-7.878,2.262-9.285,0.335c-1.812-2.471-1.002-7.011,3.484-10.333
		c6.811-5.034,16.678-7.547,25.088-6.402c10.449,1.418,17.78,8.684,22.089,14.527c0.308,0.42,0.798,1.025,1.395,1.769
		c5.115,6.371,10.495,13.583,9.597,18.543c-0.278,1.53-1.133,2.76-2.478,3.558c-0.786,0.455-1.638,0.682-2.509,0.682
		c-0.474,0-0.952-0.066-1.434-0.197c-4.352-1.206-8.356-7.693-12.087-14.353c-3.342,4.228-9.25,5.785-15.972,3.962
		C673.068,265.064,666.35,259.684,665.456,252.75z"/>
	<path fill="#08535B" d="M677.396,249.728c-0.012,0-0.019,0-0.027,0c0.146,0.443,0.262,0.863,0.366,1.253
		c0.428,1.553,0.682,2.49,2.448,3.615c2.077,1.322,5.142,1.919,6.857,0.713c0.886-1.573,0.393-2.289,0.2-2.571
		C685.88,250.761,681.112,249.728,677.396,249.728z"/>
</g>
</svg>
